<?xml version="1.0" standalone="no"?>
<!DOCTYPE svg PUBLIC "-//W3C//DTD SVG 20010904//EN"
 "http://www.w3.org/TR/2001/REC-SVG-20010904/DTD/svg10.dtd">
<svg version="1.0" xmlns="http://www.w3.org/2000/svg"
 width="700.000000pt" height="700.000000pt" viewBox="0 0 700.000000 700.000000"
 preserveAspectRatio="xMidYMid meet">
<metadata>
Created by potrace 1.14, written by Peter Selinger 2001-2017
</metadata>
<g transform="translate(0.000000,700.000000) scale(0.100000,-0.100000)"
fill="#000000" stroke="none">
<path d="M2042 5259 c-372 -42 -607 -177 -701 -404 -61 -146 -61 -144 -61
-1294 0 -1076 2 -1139 41 -1301 44 -182 153 -342 288 -424 137 -84 356 -128
636 -128 587 -2 844 161 929 587 26 132 36 286 36 563 l0 262 -339 0 -340 0
-3 -402 c-5 -455 -8 -478 -76 -546 -46 -46 -97 -62 -194 -62 -142 0 -209 37
-250 139 l-23 56 -3 1125 c-2 754 1 1148 8 1193 25 160 95 217 265 217 141 0
206 -37 247 -139 22 -54 22 -69 26 -494 l3 -437 337 2 337 3 0 435 c0 493 -4
526 -76 678 -47 97 -130 188 -225 245 -76 46 -212 92 -334 112 -114 19 -412
27 -528 14z"/>
<path d="M3630 3495 l0 -1725 340 0 340 0 0 765 0 765 280 0 280 0 0 -765 0
-765 340 0 340 0 0 1725 0 1725 -340 0 -340 0 0 -705 0 -705 -280 0 -280 0 0
705 0 705 -340 0 -340 0 0 -1725z"/>
</g>
</svg>
